<svg data-v-0dd9719b="" version="1.0" xmlns="http://www.w3.org/2000/svg" xmlns:xlink="http://www.w3.org/1999/xlink" width="100%" height="100%" viewBox="0 0 340.000000 250.000000" preserveAspectRatio="xMidYMid meet" color-interpolation-filters="sRGB" style="margin: auto;"> <rect data-v-0dd9719b="" x="0" y="0" width="100%" height="100%" fill="#FFFFFF" fill-opacity="1" class="background"></rect> <rect data-v-0dd9719b="" x="0" y="0" width="100%" height="100%" fill="url(#watermark)" fill-opacity="1" class="watermarklayer"></rect> <g data-v-0dd9719b="" fill="#A18CD1" class="icon-text-wrapper icon-svg-group iconsvg" transform="translate(43.535003662109375,94.5071029663086)"><g class="iconsvg-imagesvg" transform="translate(0,0)" mask="url(#64bb60d3-8070-48b3-b776-172f07dc8952)"><g><rect fill="#A18CD1" fill-opacity="0" stroke-width="2" x="0" y="0" width="60" height="59.83783945507674" class="image-rect"></rect> <svg filter="url(#colors2012336914)" x="0" y="0" width="60" height="59.83783945507674" filtersec="colorsf891570882" class="image-svg-svg primary" style="overflow: visible;"><svg xmlns="http://www.w3.org/2000/svg" viewBox="-0.04150962829589844 -0.009513981640338898 88.58895111083984 88.3495101928711"><g><g><path d="M44.41 7.92h41.33c1.74 0 3.13.25 2.56 2.39A2.73 2.73 0 0 1 86.56 12a22.22 22.22 0 0 1-5 .06c-3-.23-5.7.09-7.84 2.61a4 4 0 0 1-2.71.83c-22.73.21-45.46.34-68.19.58-2.15 0-2.9-.5-2.86-2.74.13-5.42.04-5.42 5.37-5.42zM.06 19c1.14-.05 1.95-.12 2.76-.12h82.69c1 0 2.67-.76 2.86 1.34.17 1.78-.19 2.78-2.37 2.71-6.22-.12-12.46-.14-18.68 0a7.2 7.2 0 0 0-4.16 1.6 7 7 0 0 1-4.88 1.86q-27.78.15-55.54.45c-2 0-2.92-.45-2.72-2.6.17-1.68.04-3.41.04-5.24zM88.13 33.71H54.5a4.35 4.35 0 0 0-2.88.92 8.89 8.89 0 0 1-7.09 2.74c-14.19 0-28.39.17-42.58.28-.49 0-1-.09-1.65-.15v-7.82h85c3.31.01 3.31.01 2.83 4.03zM.26 48.49v-8h2.61q41.31 0 82.63.05c1 0 2.46.49 2.74 1.16.81 1.94 0 2.83-2.2 2.83-14.11 0-28.21.05-42.32 0a8 8 0 0 0-5.57 2.09 7.67 7.67 0 0 1-4.36 1.71c-10.28.18-20.57.14-30.86.18zM.18 59.3v-7.48c1-.07 1.85-.19 2.72-.19h82.61c1.74 0 3.39 0 2.8 2.43a3 3 0 0 1-1.76 1.72 9.73 9.73 0 0 1-3 .07h-53c-1.86 0-3.44.31-4.65 1.79a5.09 5.09 0 0 1-4.39 1.76c-7-.15-14.04-.1-21.33-.1zM.24 4.78V.06h85c.66 0 1.47-.21 1.95.1A2.71 2.71 0 0 1 88 1.83c-1.5 1-3.09 2.72-4.67 2.73-27 .25-54 .29-80.95.36-.66 0-1.31-.09-2.14-.14zM.23 70.13v-7.51H85.47c1.13 0 2.74-.75 2.94 1.54s-1 2.49-2.84 2.49c-22.32 0-44.65 0-67-.06a5.2 5.2 0 0 0-4.41 1.7 5.49 5.49 0 0 1-4.87 1.84c-2.93-.13-5.91 0-9.06 0zM.32 80.79v-7.07c.81 0 1.53-.15 2.25-.15h82.9c1.16 0 2.53-.42 2.72 1.58.22 2.25-1 2.36-2.69 2.36H10.58c-3.58 0-7.36-.95-10.26 3.28zM.26 88.34v-3.71c1-.06 1.9-.15 2.79-.15h82.18c1 0 2.49.42 2.84 1.11.9 1.77 0 2.7-2.32 2.7H.26z"></path></g></g></svg></svg> <defs><filter id="colors2012336914"><feColorMatrix type="matrix" values="0 0 0 0 0  0 0 0 0 0  0 0 0 0 0  0 0 0 1 0" class="icon-fecolormatrix"></feColorMatrix></filter> <filter id="colorsf891570882"><feColorMatrix type="matrix" values="0 0 0 0 0.99609375  0 0 0 0 0.99609375  0 0 0 0 0.99609375  0 0 0 1 0" class="icon-fecolormatrix"></feColorMatrix></filter> <filter id="colorsb816707842"><feColorMatrix type="matrix" values="0 0 0 0 0  0 0 0 0 0  0 0 0 0 0  0 0 0 1 0" class="icon-fecolormatrix"></feColorMatrix></filter></defs></g><rect v-gra="id" width="72" height="71.83784103393555" transform="translate(-6, -6)" style="pointer-events:none;" fill="url(#cl0Azxivj-4zeahHcOl-O)"></rect></g> <g transform="translate(67,0.8520450592041016)"><g data-gra="path-name" fill-rule="" class="tp-name iconsvg-namesvg" transform="translate(0,0)"><g transform="scale(1)"><g><path d="M4.46-39.15L4.46-39.15 4.84-39.43Q11.23-38.82 12.83-35.77L12.83-35.77Q13.82-33.93 12.55-32.48L12.55-32.48Q11.23-31.02 9.16-31.82L9.16-31.82Q8.74-32.01 8.32-32.29L8.32-32.29Q7.61-35.72 4.46-39.15ZM1.13-28.2L1.13-28.2 1.5-28.53Q7.57-28.06 9.02-25.24L9.02-25.24Q9.96-23.5 8.7-22.14L8.7-22.14Q7.38-20.73 5.36-21.57L5.36-21.57Q5.03-21.76 4.65-22L4.65-22Q4.04-25.19 1.13-28.2ZM14.34-32.34L14.34-32.34 15.04-32.2Q10.53-15.42 9.96-12.69L9.96-12.69Q9.31-9.49 9.35-8.22L9.35-8.22Q9.35-7.24 10.29-4.65 11.23-2.07 11.14 0.28L11.14 0.28Q11.09 2.07 10.06 3.15 9.02 4.23 7.33 4.23L7.33 4.23Q5.36 4.23 4.89 1.74L4.89 1.74Q5.55-1.93 5.41-4.84L5.41-4.84Q5.26-7.8 4.46-8.32L4.46-8.32Q3.62-8.93 2.02-9.07L2.02-9.07 2.02-10.01 4.14-10.01Q4.7-10.01 4.89-10.15L4.89-10.15Q5.12-10.29 5.45-11L5.45-11Q6.39-12.78 14.34-32.34ZM25.19-24.39L25.19-24.39 25.66-24.68Q31.02-23.59 32.05-20.82L32.05-20.82Q32.66-19.13 31.44-18.14L31.44-18.14Q30.13-17.11 28.43-18.28L28.43-18.28Q27.87-21.15 25.19-24.39ZM24.58-14.1L24.58-14.1 25-14.38Q30.46-13.11 31.49-10.25L31.49-10.25Q32.1-8.41 30.79-7.38L30.79-7.38Q29.42-6.25 27.73-7.52L27.73-7.52Q27.31-10.81 24.58-14.1ZM20.4-5.83L20.4-5.83 34.4-5.83Q34.92-9.07 35.3-15.23L35.3-15.23 21.9-15.23Q20.96-8.98 20.4-5.83ZM35.67-26.27L35.67-26.27 23.41-26.27Q22.89-22.14 22.09-16.54L22.09-16.54 35.34-16.54Q35.53-19.88 35.67-26.27ZM45.12-15.23L45.12-15.23 40.33-15.23Q40.04-9.31 39.57-5.83L39.57-5.83 41.64-9.21Q44.09-6.82 45.45-5.22L45.45-5.22Q45.26-4.46 44.23-4.46L44.23-4.46 39.34-4.46Q38.54 0.47 36.85 2.16L36.85 2.16Q34.87 4.18 30.79 4.18L30.79 4.18Q30.88 1.93 30.08 1.08L30.08 1.08Q29.28 0 26.65-0.61L26.65-0.61 26.7-1.32Q28.86-1.03 31.25-1.03L31.25-1.03Q32.34-1.03 32.9-1.6L32.9-1.6Q33.65-2.26 34.12-4.46L34.12-4.46 15.32-4.46 15.32-6.16Q16.21-10.72 16.83-15.23L16.83-15.23 12.22-15.23 11.84-16.54 17.01-16.54Q17.77-22 18.19-26.27L18.19-26.27Q15.84-23.69 13.25-22L13.25-22 12.78-22.37Q15.13-25.38 17.06-30.27 18.99-35.16 19.88-39.81L19.88-39.81 25.52-37.79Q24.72-35.44 23.69-33.7L23.69-33.7 45.4-33.7 45.4-32.38 22.89-32.38Q22.14-31.11 20.87-29.42L20.87-29.42 24.68-27.59 40.66-27.59 40.66-25.43Q40.42-18 40.37-16.78L40.37-16.78 42.49-20.26Q45.03-17.67 46.34-15.98L46.34-15.98Q46.2-15.23 45.12-15.23ZM82.44-8.51L82.44-7.19 73.09-7.19 73.09 1.6Q73.04 1.74 72.57 1.97L72.57 1.97Q72.1 2.26 71.02 2.49 69.94 2.73 68.67 2.73L68.67 2.73 67.73 2.73 67.73-7.19 59.69-7.19 59.31-8.51 67.73-8.51 67.73-14.19 60.72-14.19 60.35-15.56 71.53-15.56Q72.8-19.46 73.65-23.73L73.65-23.73 78.11-21.95Q75.48-17.95 72.9-15.56L72.9-15.56 82.06-15.56 82.06-14.19 73.09-14.19 73.09-8.51 82.44-8.51ZM61.8-23.17L61.8-23.17 62.32-23.45Q67.73-22.23 68.62-19.36L68.62-19.36Q69.23-17.53 67.82-16.4L67.82-16.4Q66.36-15.13 64.53-16.36L64.53-16.36Q64.3-16.5 64.11-16.68L64.11-16.68Q64.06-20.02 61.8-23.17ZM73.32-33.09L92.31-33.09 92.31-31.77 73.32-31.77 73.32-25.57 89.02-25.57 89.02-2.02Q89.02 0.99 87.56 2.44L87.56 2.44Q86.15 3.9 81.64 4.32L81.64 4.32Q81.4 1.6 80.46 0.52L80.46 0.52Q79.05-0.89 76.19-1.32L76.19-1.32 76.19-1.97Q81.08-1.6 82.34-1.6L82.34-1.6Q83.33-1.6 83.33-2.58L83.33-2.58 83.33-24.25 58.33-24.25 58.33 2.3Q58.33 2.82 56.78 3.52 55.23 4.23 53.58 4.23L53.58 4.23 52.69 4.23 52.69-28.01 58.7-25.57 67.73-25.57 67.73-31.77 49.26-31.77 48.83-33.09 67.73-33.09 67.73-40 73.32-39.39 73.32-33.09ZM112.85-32.9L98-32.9 97.57-34.22 113.41-34.22Q114.21-36.66 114.3-39.95L114.3-39.95 120.41-39.06Q120.13-36 119.47-34.22L119.47-34.22 137.19-34.22 137.19-32.9 118.86-32.9Q118.77-32.71 118.02-31.44L118.02-31.44Q127.23-31.21 130.24-27.64L130.24-27.64Q131.84-25.71 130.85-24.02L130.85-24.02Q129.95-22.47 127.98-22.84L127.98-22.84Q127.65-22.89 127.32-23.03L127.32-23.03Q126.01-24.58 123.23-26.6 120.46-28.62 117.08-30.22L117.08-30.22Q112.05-24.63 98.18-22.56L98.18-22.56 97.95-23.12Q109.7-26.32 112.85-32.9L112.85-32.9ZM107.35-14.43L107.35-6.25 114.3-6.25 114.3-14.43 107.35-14.43ZM119.71-15.74L119.71-3.9Q119.66-3.57 118.06-3.01 116.47-2.44 115.24-2.44L115.24-2.44 114.3-2.44 114.3-4.93 107.35-4.93 107.35-2.07Q107.35-1.65 105.84-1.03 104.34-0.42 102.79-0.42L102.79-0.42 102.08-0.42 102.08-17.86 107.58-15.74 119.71-15.74ZM95.55-21.53L139.73-21.53 139.73-20.16 131.32-20.16 131.32-1.97Q131.32 0.99 129.81 2.44 128.31 3.9 123.7 4.18L123.7 4.18Q123.38 1.55 122.48 0.75L122.48 0.75Q121.03-0.47 117.69-0.99L117.69-0.99 117.69-1.6Q123.42-1.22 124.6-1.22L124.6-1.22Q125.68-1.22 125.68-2.07L125.68-2.07 125.68-20.16 95.93-20.16 95.55-21.53ZM164.59-30.74L164.59-30.74 155.95-30.74 155.57-32.1 169.95-32.1Q169.29-32.34 168.68-32.81L168.68-32.81Q168.64-34.59 167.79-36.42L167.79-36.42Q166.94-38.3 165.77-39.57L165.77-39.57 166.15-39.86Q172.3-39.24 173.71-36.19L173.71-36.19Q174.56-34.31 173.15-32.81L173.15-32.81Q172.68-32.34 172.07-32.1L172.07-32.1 186.64-32.1 186.64-30.74 177.75-30.74 177.75-10.06Q177.75-7.1 176.49-5.59 175.22-4.09 171.27-3.76L171.27-3.76Q171.17-6.39 170.47-7.33L170.47-7.33Q169.53-8.55 166.99-8.98L166.99-8.98 166.99-9.63Q170.84-9.4 171.64-9.4L171.64-9.4Q172.54-9.4 172.54-10.2L172.54-10.2 172.54-30.74 169.62-30.74Q169.58-28.06 169.48-26.32L169.48-26.32Q169.44-24.63 169.2-22.37L169.2-22.37Q169.01-20.12 168.64-18.57L168.64-18.57Q168.31-17.01 167.7-15.13L167.7-15.13Q167.13-13.3 166.24-11.89L166.24-11.89Q165.39-10.53 164.17-9.07L164.17-9.07Q163-7.66 161.35-6.44L161.35-6.44Q159.75-5.22 157.69-4.14L157.69-4.14 157.12-4.84Q161.21-8.41 162.71-12.93L162.71-12.93Q164.26-17.48 164.5-24.06L164.5-24.06Q164.03-23.97 163.65-23.97L163.65-23.97Q160.74-16.12 155.43-12.13L155.43-12.13 154.77-12.55Q158.11-18.52 159.05-26.88L159.05-26.88 164.55-25.24Q164.55-26.09 164.55-27.92L164.55-27.92Q164.59-29.75 164.59-30.74ZM178.04-26.41L178.04-26.41 178.6-26.65Q184.85-22.94 186.07-18.19L186.07-18.19Q186.87-15.18 185.37-13.58L185.37-13.58Q183.96-12.13 182.08-13.49L182.08-13.49Q181.75-13.68 181.42-14.01L181.42-14.01Q181.37-18.99 178.04-26.41ZM144.38-38.68L144.38-38.68 144.85-38.92Q151.76-36.9 153.6-32.95L153.6-32.95Q154.72-30.46 153.41-28.81L153.41-28.81Q152.14-27.26 150.12-28.15L150.12-28.15Q149.69-28.34 149.27-28.67L149.27-28.67Q148.28-33.42 144.38-38.68ZM153.31-22.98L153.31-6.39Q156.09-3.71 160.32-2.73L160.32-2.73Q164.55-1.79 172.16-1.83L172.16-1.83Q180.86-1.83 187.06-2.16L187.06-2.16 187.06-1.6Q183.91-0.85 183.49 2.96L183.49 2.96 170.52 2.96Q163.42 2.96 159.56 1.22 155.71-0.52 152.66-4.75L152.66-4.75Q151.76-5.88 150.96-4.7L150.96-4.7Q146.55 2.02 146.17 2.68L146.17 2.68Q146.36 3.29 145.7 3.81L145.7 3.81 142.08-1.74Q143.12-2.3 145.42-3.71 147.72-5.12 148.24-5.45L148.24-5.45 148.24-21.67 142.55-21.67 142.32-22.98 153.31-22.98Z" transform="translate(-1.1299999952316284, 40)"></path></g> <!----> <!----> <!----> <!----> <!----> <!----> <!----></g></g> <g data-gra="path-slogan" fill-rule="" class="tp-slogan iconsvg-slogansvg" fill="#FBC2EB" transform="translate(5,52.31999969482422)"><rect x="0" height="1" y="3.4050002098083496" width="58.429996490478516"></rect> <rect height="1" y="3.4050002098083496" width="54.429996490478516" x="121.49999618530273"></rect> <g transform="translate(61.429996490478516,0)"><g transform="scale(1)"><path d="M1.72-4.22L5.47-4.22L5.47-7.15L6.45-7.15L6.45 0L5.47 0L5.47-3.32L1.72-3.32L1.72 0L0.74 0L0.74-7.15L1.72-7.15L1.72-4.22ZM12.66 0L11.95-2.07L9.06-2.07L8.32 0L7.34 0L10.04-7.15L11.13-7.15L13.71 0L12.66 0ZM10.51-6.09L9.38-2.93L11.60-2.93L10.55-6.09L10.51-6.09ZM14.73-7.15L15.70-7.15L15.70 0L14.73 0L14.73-7.15ZM18.52-7.15L22.11-1.37L22.11-7.15L23.05-7.15L23.05 0L21.95 0L18.32-5.78L18.28-5.78L18.28 0L17.34 0L17.34-7.15L18.52-7.15ZM29.26 0L28.55-2.07L25.66-2.07L24.92 0L23.95 0L26.64-7.15L27.73-7.15L30.31 0L29.26 0ZM27.11-6.09L25.98-2.93L28.20-2.93L27.15-6.09L27.11-6.09ZM32.34-7.15L35.94-1.37L35.94-7.15L36.88-7.15L36.88 0L35.78 0L32.15-5.78L32.11-5.78L32.11 0L31.17 0L31.17-7.15L32.34-7.15ZM45.31-0.90L44.57-1.48L45.08-2.07L45.98-1.37Q46.80-2.19 46.80-3.55L46.80-3.55Q46.64-6.37 44.30-6.52L44.30-6.52Q41.91-6.41 41.80-3.55L41.80-3.55Q41.91-0.78 44.30-0.66L44.30-0.66Q44.88-0.66 45.31-0.90L45.31-0.90ZM46.76-0.78L47.70-0.04L47.23 0.47L46.13-0.27Q45.43 0.12 44.30 0.12L44.30 0.12Q41.02 0 40.78-3.55L40.78-3.55Q40.98-7.27 44.30-7.34L44.30-7.34Q47.54-7.23 47.77-3.55L47.77-3.55Q47.73-1.84 46.76-0.78L46.76-0.78ZM49.06-7.15L50.04-7.15L50.04 0L49.06 0L49.06-7.15ZM51.09-1.60L51.09-2.30L51.99-2.30L51.99-1.80Q51.99-0.63 53.09-0.63L53.09-0.63Q54.22-0.63 54.22-1.88L54.22-1.88L54.22-7.15L55.20-7.15L55.20-1.91Q55.16 0.08 53.13 0.12L53.13 0.12Q51.21 0.08 51.09-1.60L51.09-1.60ZM56.84-7.15L57.81-7.15L57.81 0L56.84 0L56.84-7.15Z" transform="translate(-0.7421875, 7.34375)"></path></g></g></g></g></g><defs v-gra="od"></defs><defs v-gra="id"><filter id="c8084df4-4816-4ab9-8d03-9f09a14d8c98" filterUnits="userSpaceOnUse"><feColorMatrix type="matrix" values="0 0 0 0 0.99609375  0 0 0 0 0.99609375  0 0 0 0 0.99609375  0 0 0 1 0"></feColorMatrix></filter><linearGradient x1="0" y1="1" x2="0" y2="0" id="cl0Azxivj-4zeahHcOl-O"><stop offset="0%" stop-color="#a18cd1"></stop><stop offset="100%" stop-color="#fbc2eb"></stop></linearGradient><filter id="42443b3f1de60f6b6fd3b6a9844b4764" filterUnits="objectBoundingBox"><feColorMatrix type="matrix" values="0 0 0 0 0.99609375  0 0 0 0 0.99609375  0 0 0 0 0.99609375  0 0 0 1 0"></feColorMatrix></filter></defs><mask v-gra="im" id="64bb60d3-8070-48b3-b776-172f07dc8952"><g class="iconsvg-imagesvg" filter="url(#c8084df4-4816-4ab9-8d03-9f09a14d8c98)"><g><rect fill="#A18CD1" fill-opacity="0" stroke-width="2" x="0" y="0" width="60" height="59.83783945507674" class="image-rect"></rect> <svg x="0" y="0" width="60" height="59.83783945507674" filtersec="colorsf891570882" class="image-svg-svg primary" style="overflow: visible;"><svg xmlns="http://www.w3.org/2000/svg" viewBox="-0.04150962829589844 -0.009513981640338898 88.58895111083984 88.3495101928711"><g><g><path d="M44.41 7.92h41.33c1.74 0 3.13.25 2.56 2.39A2.73 2.73 0 0 1 86.56 12a22.22 22.22 0 0 1-5 .06c-3-.23-5.7.09-7.84 2.61a4 4 0 0 1-2.71.83c-22.73.21-45.46.34-68.19.58-2.15 0-2.9-.5-2.86-2.74.13-5.42.04-5.42 5.37-5.42zM.06 19c1.14-.05 1.95-.12 2.76-.12h82.69c1 0 2.67-.76 2.86 1.34.17 1.78-.19 2.78-2.37 2.71-6.22-.12-12.46-.14-18.68 0a7.2 7.2 0 0 0-4.16 1.6 7 7 0 0 1-4.88 1.86q-27.78.15-55.54.45c-2 0-2.92-.45-2.72-2.6.17-1.68.04-3.41.04-5.24zM88.13 33.71H54.5a4.35 4.35 0 0 0-2.88.92 8.89 8.89 0 0 1-7.09 2.74c-14.19 0-28.39.17-42.58.28-.49 0-1-.09-1.65-.15v-7.82h85c3.31.01 3.31.01 2.83 4.03zM.26 48.49v-8h2.61q41.31 0 82.63.05c1 0 2.46.49 2.74 1.16.81 1.94 0 2.83-2.2 2.83-14.11 0-28.21.05-42.32 0a8 8 0 0 0-5.57 2.09 7.67 7.67 0 0 1-4.36 1.71c-10.28.18-20.57.14-30.86.18zM.18 59.3v-7.48c1-.07 1.85-.19 2.72-.19h82.61c1.74 0 3.39 0 2.8 2.43a3 3 0 0 1-1.76 1.72 9.73 9.73 0 0 1-3 .07h-53c-1.86 0-3.44.31-4.65 1.79a5.09 5.09 0 0 1-4.39 1.76c-7-.15-14.04-.1-21.33-.1zM.24 4.78V.06h85c.66 0 1.47-.21 1.95.1A2.71 2.71 0 0 1 88 1.83c-1.5 1-3.09 2.72-4.67 2.73-27 .25-54 .29-80.95.36-.66 0-1.31-.09-2.14-.14zM.23 70.13v-7.51H85.47c1.13 0 2.74-.75 2.94 1.54s-1 2.49-2.84 2.49c-22.32 0-44.65 0-67-.06a5.2 5.2 0 0 0-4.41 1.7 5.49 5.49 0 0 1-4.87 1.84c-2.93-.13-5.91 0-9.06 0zM.32 80.79v-7.07c.81 0 1.53-.15 2.25-.15h82.9c1.16 0 2.53-.42 2.72 1.58.22 2.25-1 2.36-2.69 2.36H10.58c-3.58 0-7.36-.95-10.26 3.28zM.26 88.34v-3.71c1-.06 1.9-.15 2.79-.15h82.18c1 0 2.49.42 2.84 1.11.9 1.77 0 2.7-2.32 2.7H.26z"></path></g></g></svg></svg> <defs><filter id="colors2012336914"><feColorMatrix type="matrix" values="0 0 0 0 0  0 0 0 0 0  0 0 0 0 0  0 0 0 1 0" class="icon-fecolormatrix"></feColorMatrix></filter> <filter id="colorsf891570882"><feColorMatrix type="matrix" values="0 0 0 0 0.99609375  0 0 0 0 0.99609375  0 0 0 0 0.99609375  0 0 0 1 0" class="icon-fecolormatrix"></feColorMatrix></filter> <filter id="colorsb816707842"><feColorMatrix type="matrix" values="0 0 0 0 0  0 0 0 0 0  0 0 0 0 0  0 0 0 1 0" class="icon-fecolormatrix"></feColorMatrix></filter></defs></g></g></mask></svg>